<svg width="71" height="80" viewBox="0 0 71 80" fill="none" xmlns="http://www.w3.org/2000/svg">
<path d="M0.229004 0L6.57516 71.7885L35.4982 80L64.3059 71.7885L70.7771 0H0.229004ZM57.4405 17.0288L56.979 21.5673L56.8155 23.4423H23.0271L23.8155 32.5H56.0367L55.7194 34.8365L53.6809 58.125L53.5175 59.6827L35.5367 64.6442V64.6731H35.4213L35.3925 64.6827V64.6731H35.3828L17.2482 59.6731L16.1521 45.7692H24.9117L25.5367 52.8077L35.3828 55.4712H35.4213L45.229 52.8173L46.3252 41.4135H35.3925V41.4038H15.6905L13.4982 17.0288L13.3348 14.6923H57.5944L57.4405 17.0288V17.0288Z" fill="white"/>
</svg>
