<svg width="85" height="80" viewBox="0 0 85 80" fill="none" xmlns="http://www.w3.org/2000/svg">
<path d="M31.7319 60.129L25.9625 63.4838C28.585 68.6451 32.9404 70.3706 38.0259 69.9354C44.0575 69.4193 47.2045 65.2903 47.4668 60.129V35.3548H40.1238V60.129C40.1238 61.9354 39.4982 62.5761 39.0748 62.9677C38.5169 63.4838 36.7146 63.9999 35.1411 63.4838C33.7479 63.0268 32.2564 61.2473 31.7319 60.129Z" fill="white"/>
<path d="M73.9538 40.5161L68.4465 44.129C67.9221 43.5268 66.8496 41.999 66.0863 41.5484C64.7751 40.7742 62.5664 41.114 61.6281 41.8065C60.5791 42.5807 59.7924 43.6129 60.5791 45.4194C61.2454 46.9492 64.7751 48.258 64.7751 48.258C64.7751 48.258 70.8068 51.0968 71.5935 51.6129C76.314 54.7097 76.0517 59.3548 76.0517 60.9032C76.0517 62.4516 75.0027 67.3548 69.4955 69.1613C63.9883 70.9677 59.7924 70.0461 56.3832 68.129C54.4213 67.0258 51.925 64.5161 51.1382 62.7097L57.1699 59.3548C57.3447 59.957 59.5301 62.9677 62.1526 63.4839C63.6991 63.7882 66.6108 63.7419 67.9221 62.4516C69.2333 61.1613 69.2333 58.5806 67.6598 57.5484C64.4381 55.4348 59.9065 53.9259 57.1699 52.3871C53.4984 50.3226 50.3433 45.2464 54.8097 38.9677C58.4812 33.8065 65.0373 34.8784 67.1353 35.3548C69.5884 35.9118 72.3803 37.4194 73.9538 40.5161Z" fill="white"/>
<path d="M6.59625 76.3082V68.129H4.72045H2.84465V80H84.7059V0H2.84465V48.258H4.72045H6.59625V3.69179H80.9543V76.3082H6.59625Z" fill="white"/>
<path d="M4.64515 62.9014H4.79576C7.3612 62.9014 9.4409 60.8217 9.4409 58.2563C9.4409 55.6908 7.3612 53.6111 4.79576 53.6111H4.72045H4.64515C2.0797 53.6111 0 55.6908 0 58.2563C0 60.8217 2.0797 62.9014 4.64515 62.9014Z" fill="white"/>
</svg>
