<svg width="20" height="23" viewBox="0 0 20 23" fill="none" xmlns="http://www.w3.org/2000/svg">
<path d="M1.93948 16.2865C1.40824 17.1719 0.323512 20.9339 0.0523619 22.6043C0.0279669 22.7546 0.193547 22.8471 0.311494 22.7509C1.67927 21.6344 4.81213 18.846 5.22162 18.027C5.45364 17.563 5.46916 17.3155 5.4702 16.8804C5.47033 16.8236 5.43224 16.7739 5.37767 16.7582C5.14814 16.692 4.54499 16.5007 4.17732 16.2243C3.83633 15.9679 3.43786 15.527 3.29078 15.3593C3.25551 15.3191 3.19871 15.3053 3.14908 15.3253C2.58335 15.553 2.29538 15.6933 1.93948 16.2865Z" fill="white"/>
<path d="M12.0345 3.2408L8.20541 8.57838L3.82616 5.88345C3.57884 5.73126 3.25405 5.83427 3.13965 6.10119C3.04933 6.31195 3.12222 6.55715 3.31301 6.68434L3.72974 6.96216L3.48109 7.83243L2.96088 7.59597C2.46861 7.37221 1.88681 7.5282 1.57251 7.96822C1.1924 8.50038 1.34149 9.24306 1.89754 9.58728L5.01044 11.5143C5.71357 11.9496 6.56734 12.2423 7.33514 11.9351C7.53148 11.8566 7.72781 11.7285 7.90456 11.5899C8.32905 11.2571 8.9195 11.1452 9.38205 11.4227C9.64039 11.5777 9.97108 11.537 10.1841 11.324L10.9405 10.5676L14.0997 12.0886C14.2126 12.143 14.3483 12.1048 14.4164 11.9995L19.1169 4.72486C19.3088 4.42797 19.1383 4.03134 18.7909 3.96619L17.5297 3.72973L17.9027 3.23243L19.3132 1.16377C19.5217 0.857929 19.3349 0.439611 18.968 0.390688L16.3315 0.0391543C16.1506 0.0150297 15.971 0.0919695 15.8636 0.239593L14.2647 2.43809C14.1363 2.61465 14.138 2.85432 14.269 3.02897L14.4216 3.23243L12.7703 2.94102C12.4878 2.89117 12.2018 3.00772 12.0345 3.2408Z" fill="white"/>
<path d="M4.60001 15.9135C4.24193 15.6714 3.69883 15.1372 3.53176 14.97C3.50017 14.9384 3.48867 14.8924 3.50095 14.8494L3.97839 13.1784L3.10812 11.8108V10.9405L9.82163 15.0432L8.82704 15.4162L7.45947 15.1676L6.01384 16.3723C5.98462 16.3966 5.94612 16.4063 5.90905 16.3978C5.69988 16.3496 4.98149 16.1714 4.60001 15.9135Z" fill="white"/>
</svg>
