<svg width="285" height="92" viewBox="0 0 285 92" fill="none" xmlns="http://www.w3.org/2000/svg">
<path d="M42.5 50H65.5V1H38.5L0 56V76H42.5V91H65.5V76H74.5V55H25L42.5 29V50Z" fill="white"/>
<path d="M252.5 50H275.5V1H248.5L210 56V76H252.5V91H275.5V76H284.5V55H235L252.5 29V50Z" fill="white"/>
<path d="M117.649 40.6439V6H165.618V40.6439C165.618 53.89 154.879 64.6281 141.633 64.6281C128.387 64.6281 117.649 53.89 117.649 40.6439Z" fill="white"/>
<path d="M106.989 16.6596H105.657C97.5622 16.6596 91 23.2218 91 31.3167V31.3167C91 39.4115 97.5622 45.9737 105.657 45.9737H106.989M176.277 16.6596H177.61C185.705 16.6596 192.267 23.2218 192.267 31.3167V31.3167C192.267 39.4115 185.705 45.9737 177.61 45.9737H176.277M141.633 75.2877V85.9474M141.633 85.9474H122.979M141.633 85.9474H160.288M117.649 6V40.6439C117.649 53.89 128.387 64.6281 141.633 64.6281V64.6281C154.879 64.6281 165.618 53.89 165.618 40.6439V6H117.649Z" stroke="white" stroke-width="10.6596"/>
</svg>
