<svg width="827" height="573" viewBox="0 0 827 573" fill="none" xmlns="http://www.w3.org/2000/svg">
<rect x="1" y="0.560593" width="825" height="571.25" fill="#009BF2"/>
<path d="M1 197.923H185.519V571.811H1V197.923Z" fill="#0169A4"/>
<path d="M387.881 197.923H408.5V571.811H387.881V197.923Z" fill="#0169A4"/>
<path d="M185.519 207.683H195.28V571.811H185.519V207.683Z" fill="#0169A4"/>
<path d="M195.28 217.443H214.8V571.811H195.28V217.443Z" fill="#0169A4"/>
<path d="M355.347 217.443H387.881V571.811H355.347V217.443Z" fill="#0169A4"/>
<path d="M214.8 227.203H224.56V571.811H214.8V227.203Z" fill="#0169A4"/>
<path d="M339.08 223.95H355.347V571.811H339.08V223.95Z" fill="#0169A4"/>
<path d="M224.56 236.964H339.08V571.811H224.56V236.964Z" fill="#0169A4"/>
<path d="M671.762 212.908H683.729V224.875H671.762V212.908Z" fill="#0169A4"/>
<path d="M683.729 188.975H826V571.811H683.729V188.975Z" fill="#0169A4"/>
<path d="M408.5 200.942H528.165V571.811H408.5V200.942Z" fill="#0169A4"/>
<path d="M695.695 177.009H826V188.975H695.695V177.009Z" fill="#0169A4"/>
<path d="M408.5 188.975H444.399V200.942H408.5V188.975Z" fill="#0169A4"/>
<path d="M528.165 224.875H683.729V571.811H528.165V224.875Z" fill="#0169A4"/>
<path d="M185.519 571.811V197.923H1V571.811H185.519ZM185.519 571.811H195.28M185.519 571.811V207.683H195.28V571.811M408.5 571.811V197.923H387.881V571.811M408.5 571.811H387.881M408.5 571.811H528.165M408.5 571.811V200.942M387.881 571.811V217.443H355.347V571.811M387.881 571.811H355.347M195.28 571.811H214.8M195.28 571.811V217.443H214.8V571.811M214.8 571.811H224.56M214.8 571.811V227.203H224.56V571.811M355.347 571.811V223.95H339.08V571.811M355.347 571.811H339.08M224.56 571.811H339.08M224.56 571.811V236.964H339.08V571.811M683.729 224.875V212.908H671.762V224.875H683.729ZM683.729 224.875H528.165V571.811M683.729 224.875V571.811M528.165 571.811V200.942H408.5M528.165 571.811H683.729M826 188.975H683.729V571.811M826 188.975V571.811H683.729M826 188.975V177.009H695.695V188.975H826ZM408.5 200.942H444.399V188.975H408.5V200.942Z" stroke="#0169A4" stroke-width="1.20438"/>
<path d="M254.492 142.615H265.553V154.544H254.492V142.615Z" fill="#0169A4"/>
<path d="M254.492 226.119H265.553V249.977H254.492V226.119Z" fill="#0169A4"/>
<path d="M254.492 166.473H265.553V178.402H254.492V166.473Z" fill="#0169A4"/>
<path d="M232.368 190.332H287.676V202.261H232.368V190.332Z" fill="#0169A4"/>
<path d="M232.368 214.19H287.676V226.119H232.368V214.19Z" fill="#0169A4"/>
<path d="M243.43 154.544H276.615V166.473H243.43V154.544Z" fill="#0169A4"/>
<path d="M243.43 178.402H276.615V190.332H243.43V178.402Z" fill="#0169A4"/>
<path d="M243.43 202.261H276.615V214.19H243.43V202.261Z" fill="#0169A4"/>
<path d="M254.492 142.615H265.553V154.544H254.492V142.615Z" stroke="#0169A4" stroke-width="1.20438"/>
<path d="M254.492 226.119H265.553V249.977H254.492V226.119Z" stroke="#0169A4" stroke-width="1.20438"/>
<path d="M254.492 166.473H265.553V178.402H254.492V166.473Z" stroke="#0169A4" stroke-width="1.20438"/>
<path d="M232.368 190.332H287.676V202.261H232.368V190.332Z" stroke="#0169A4" stroke-width="1.20438"/>
<path d="M232.368 214.19H287.676V226.119H232.368V214.19Z" stroke="#0169A4" stroke-width="1.20438"/>
<path d="M243.43 154.544H276.615V166.473H243.43V154.544Z" stroke="#0169A4" stroke-width="1.20438"/>
<path d="M243.43 178.402H276.615V190.332H243.43V178.402Z" stroke="#0169A4" stroke-width="1.20438"/>
<path d="M243.43 202.261H276.615V214.19H243.43V202.261Z" stroke="#0169A4" stroke-width="1.20438"/>
<path d="M328.018 129.601H339.08V141.531H328.018V129.601Z" fill="#0169A4"/>
<path d="M328.018 213.105H339.08V236.964H328.018V213.105Z" fill="#0169A4"/>
<path d="M328.018 153.46H339.08V165.389H328.018V153.46Z" fill="#0169A4"/>
<path d="M305.895 177.318H361.203V189.247H305.895V177.318Z" fill="#0169A4"/>
<path d="M305.895 201.176H361.203V213.105H305.895V201.176Z" fill="#0169A4"/>
<path d="M316.957 141.531H350.142V153.46H316.957V141.531Z" fill="#0169A4"/>
<path d="M316.957 165.389H350.142V177.318H316.957V165.389Z" fill="#0169A4"/>
<path d="M316.957 189.247H350.142V201.176H316.957V189.247Z" fill="#0169A4"/>
<path d="M328.018 129.601H339.08V141.531H328.018V129.601Z" stroke="#0169A4" stroke-width="1.20438"/>
<path d="M328.018 213.105H339.08V236.964H328.018V213.105Z" stroke="#0169A4" stroke-width="1.20438"/>
<path d="M328.018 153.46H339.08V165.389H328.018V153.46Z" stroke="#0169A4" stroke-width="1.20438"/>
<path d="M305.895 177.318H361.203V189.247H305.895V177.318Z" stroke="#0169A4" stroke-width="1.20438"/>
<path d="M305.895 201.176H361.203V213.105H305.895V201.176Z" stroke="#0169A4" stroke-width="1.20438"/>
<path d="M316.957 141.531H350.142V153.46H316.957V141.531Z" stroke="#0169A4" stroke-width="1.20438"/>
<path d="M316.957 165.389H350.142V177.318H316.957V165.389Z" stroke="#0169A4" stroke-width="1.20438"/>
<path d="M316.957 189.247H350.142V201.176H316.957V189.247Z" stroke="#0169A4" stroke-width="1.20438"/>
<path d="M195.28 110.081H206.341V122.01H195.28V110.081Z" fill="#0169A4"/>
<path d="M195.28 193.585H206.341V217.443H195.28V193.585Z" fill="#0169A4"/>
<path d="M195.28 133.939H206.341V145.868H195.28V133.939Z" fill="#0169A4"/>
<path d="M173.157 157.798H228.464V169.727H173.157V157.798Z" fill="#0169A4"/>
<path d="M173.157 181.656H228.464V193.585H173.157V181.656Z" fill="#0169A4"/>
<path d="M184.218 122.01H217.403V133.939H184.218V122.01Z" fill="#0169A4"/>
<path d="M184.218 145.868H217.403V157.798H184.218V145.868Z" fill="#0169A4"/>
<path d="M184.218 169.727H217.403V181.656H184.218V169.727Z" fill="#0169A4"/>
<path d="M195.28 110.081H206.341V122.01H195.28V110.081Z" stroke="#0169A4" stroke-width="1.20438"/>
<path d="M195.28 193.585H206.341V217.443H195.28V193.585Z" stroke="#0169A4" stroke-width="1.20438"/>
<path d="M195.28 133.939H206.341V145.868H195.28V133.939Z" stroke="#0169A4" stroke-width="1.20438"/>
<path d="M173.157 157.798H228.464V169.727H173.157V157.798Z" stroke="#0169A4" stroke-width="1.20438"/>
<path d="M173.157 181.656H228.464V193.585H173.157V181.656Z" stroke="#0169A4" stroke-width="1.20438"/>
<path d="M184.218 122.01H217.403V133.939H184.218V122.01Z" stroke="#0169A4" stroke-width="1.20438"/>
<path d="M184.218 145.868H217.403V157.798H184.218V145.868Z" stroke="#0169A4" stroke-width="1.20438"/>
<path d="M184.218 169.727H217.403V181.656H184.218V169.727Z" stroke="#0169A4" stroke-width="1.20438"/>
<path d="M119.15 90.5606H130.212V102.49H119.15V90.5606Z" fill="#0169A4"/>
<path d="M119.15 174.065H130.212V197.923H119.15V174.065Z" fill="#0169A4"/>
<path d="M119.15 114.419H130.212V126.348H119.15V114.419Z" fill="#0169A4"/>
<path d="M97.0269 138.277H152.335V150.206H97.0269V138.277Z" fill="#0169A4"/>
<path d="M97.0269 162.135H152.335V174.065H97.0269V162.135Z" fill="#0169A4"/>
<path d="M108.088 102.49H141.273V114.419H108.088V102.49Z" fill="#0169A4"/>
<path d="M108.088 126.348H141.273V138.277H108.088V126.348Z" fill="#0169A4"/>
<path d="M108.088 150.206H141.273V162.135H108.088V150.206Z" fill="#0169A4"/>
<path d="M119.15 90.5606H130.212V102.49H119.15V90.5606Z" stroke="#0169A4" stroke-width="1.20438"/>
<path d="M119.15 174.065H130.212V197.923H119.15V174.065Z" stroke="#0169A4" stroke-width="1.20438"/>
<path d="M119.15 114.419H130.212V126.348H119.15V114.419Z" stroke="#0169A4" stroke-width="1.20438"/>
<path d="M97.0269 138.277H152.335V150.206H97.0269V138.277Z" stroke="#0169A4" stroke-width="1.20438"/>
<path d="M97.0269 162.135H152.335V174.065H97.0269V162.135Z" stroke="#0169A4" stroke-width="1.20438"/>
<path d="M108.088 102.49H141.273V114.419H108.088V102.49Z" stroke="#0169A4" stroke-width="1.20438"/>
<path d="M108.088 126.348H141.273V138.277H108.088V126.348Z" stroke="#0169A4" stroke-width="1.20438"/>
<path d="M108.088 150.206H141.273V162.135H108.088V150.206Z" stroke="#0169A4" stroke-width="1.20438"/>
<path d="M45.6231 90.5606H56.6847V102.49H45.6231V90.5606Z" fill="#0169A4"/>
<path d="M45.6231 174.065H56.6847V197.923H45.6231V174.065Z" fill="#0169A4"/>
<path d="M45.6231 114.419H56.6847V126.348H45.6231V114.419Z" fill="#0169A4"/>
<path d="M23.5 138.277H78.8078V150.206H23.5V138.277Z" fill="#0169A4"/>
<path d="M23.5 162.135H78.8078V174.065H23.5V162.135Z" fill="#0169A4"/>
<path d="M34.5616 102.49H67.7463V114.419H34.5616V102.49Z" fill="#0169A4"/>
<path d="M34.5616 126.348H67.7463V138.277H34.5616V126.348Z" fill="#0169A4"/>
<path d="M34.5616 150.206H67.7463V162.135H34.5616V150.206Z" fill="#0169A4"/>
<path d="M45.6231 90.5606H56.6847V102.49H45.6231V90.5606Z" stroke="#0169A4" stroke-width="1.20438"/>
<path d="M45.6231 174.065H56.6847V197.923H45.6231V174.065Z" stroke="#0169A4" stroke-width="1.20438"/>
<path d="M45.6231 114.419H56.6847V126.348H45.6231V114.419Z" stroke="#0169A4" stroke-width="1.20438"/>
<path d="M23.5 138.277H78.8078V150.206H23.5V138.277Z" stroke="#0169A4" stroke-width="1.20438"/>
<path d="M23.5 162.135H78.8078V174.065H23.5V162.135Z" stroke="#0169A4" stroke-width="1.20438"/>
<path d="M34.5616 102.49H67.7463V114.419H34.5616V102.49Z" stroke="#0169A4" stroke-width="1.20438"/>
<path d="M34.5616 126.348H67.7463V138.277H34.5616V126.348Z" stroke="#0169A4" stroke-width="1.20438"/>
<path d="M34.5616 150.206H67.7463V162.135H34.5616V150.206Z" stroke="#0169A4" stroke-width="1.20438"/>
<path d="M492.265 105.21H504.232V117.176H492.265V105.21Z" fill="#0169A4"/>
<path d="M492.265 188.975H504.232V200.942H492.265V188.975Z" fill="#0169A4"/>
<path d="M492.265 129.143H504.232V141.109H492.265V129.143Z" fill="#0169A4"/>
<path d="M468.332 153.076H528.165V165.042H468.332V153.076Z" fill="#0169A4"/>
<path d="M468.332 177.009H528.165V188.975H468.332V177.009Z" fill="#0169A4"/>
<path d="M480.299 117.176H516.198V129.143H480.299V117.176Z" fill="#0169A4"/>
<path d="M480.299 141.109H516.198V153.076H480.299V141.109Z" fill="#0169A4"/>
<path d="M480.299 165.042H516.198V177.009H480.299V165.042Z" fill="#0169A4"/>
<path d="M492.265 105.21H504.232V117.176H492.265V105.21Z" stroke="#0169A4" stroke-width="1.20438"/>
<path d="M492.265 188.975H504.232V200.942H492.265V188.975Z" stroke="#0169A4" stroke-width="1.20438"/>
<path d="M492.265 129.143H504.232V141.109H492.265V129.143Z" stroke="#0169A4" stroke-width="1.20438"/>
<path d="M468.332 153.076H528.165V165.042H468.332V153.076Z" stroke="#0169A4" stroke-width="1.20438"/>
<path d="M468.332 177.009H528.165V188.975H468.332V177.009Z" stroke="#0169A4" stroke-width="1.20438"/>
<path d="M480.299 117.176H516.198V129.143H480.299V117.176Z" stroke="#0169A4" stroke-width="1.20438"/>
<path d="M480.299 141.109H516.198V153.076H480.299V141.109Z" stroke="#0169A4" stroke-width="1.20438"/>
<path d="M480.299 165.042H516.198V177.009H480.299V165.042Z" stroke="#0169A4" stroke-width="1.20438"/>
<path d="M635.863 117.176H647.829V129.143H635.863V117.176Z" fill="#0169A4"/>
<path d="M635.863 200.942H647.829V224.875H635.863V200.942Z" fill="#0169A4"/>
<path d="M635.863 141.109H647.829V153.076H635.863V141.109Z" fill="#0169A4"/>
<path d="M611.93 165.042H671.762V177.009H611.93V165.042Z" fill="#0169A4"/>
<path d="M611.93 188.975H671.762V200.942H611.93V188.975Z" fill="#0169A4"/>
<path d="M623.896 129.143H659.796V141.109H623.896V129.143Z" fill="#0169A4"/>
<path d="M623.896 153.076H659.796V165.042H623.896V153.076Z" fill="#0169A4"/>
<path d="M623.896 177.009H659.796V188.975H623.896V177.009Z" fill="#0169A4"/>
<path d="M635.863 117.176H647.829V129.143H635.863V117.176Z" stroke="#0169A4" stroke-width="1.20438"/>
<path d="M635.863 200.942H647.829V224.875H635.863V200.942Z" stroke="#0169A4" stroke-width="1.20438"/>
<path d="M635.863 141.109H647.829V153.076H635.863V141.109Z" stroke="#0169A4" stroke-width="1.20438"/>
<path d="M611.93 165.042H671.762V177.009H611.93V165.042Z" stroke="#0169A4" stroke-width="1.20438"/>
<path d="M611.93 188.975H671.762V200.942H611.93V188.975Z" stroke="#0169A4" stroke-width="1.20438"/>
<path d="M623.896 129.143H659.796V141.109H623.896V129.143Z" stroke="#0169A4" stroke-width="1.20438"/>
<path d="M623.896 153.076H659.796V165.042H623.896V153.076Z" stroke="#0169A4" stroke-width="1.20438"/>
<path d="M623.896 177.009H659.796V188.975H623.896V177.009Z" stroke="#0169A4" stroke-width="1.20438"/>
<path d="M755.527 69.3106H767.494V81.2771H755.527V69.3106Z" fill="#0169A4"/>
<path d="M755.527 153.076H767.494V177.009H755.527V153.076Z" fill="#0169A4"/>
<path d="M755.527 93.2435H767.494V105.21H755.527V93.2435Z" fill="#0169A4"/>
<path d="M731.594 117.176H791.427V129.143H731.594V117.176Z" fill="#0169A4"/>
<path d="M731.594 141.109H791.427V153.076H731.594V141.109Z" fill="#0169A4"/>
<path d="M743.561 81.2771H779.46V93.2435H743.561V81.2771Z" fill="#0169A4"/>
<path d="M743.561 105.21H779.46V117.176H743.561V105.21Z" fill="#0169A4"/>
<path d="M743.561 129.143H779.46V141.109H743.561V129.143Z" fill="#0169A4"/>
<path d="M755.527 69.3106H767.494V81.2771H755.527V69.3106Z" stroke="#0169A4" stroke-width="1.20438"/>
<path d="M755.527 153.076H767.494V177.009H755.527V153.076Z" stroke="#0169A4" stroke-width="1.20438"/>
<path d="M755.527 93.2435H767.494V105.21H755.527V93.2435Z" stroke="#0169A4" stroke-width="1.20438"/>
<path d="M731.594 117.176H791.427V129.143H731.594V117.176Z" stroke="#0169A4" stroke-width="1.20438"/>
<path d="M731.594 141.109H791.427V153.076H731.594V141.109Z" stroke="#0169A4" stroke-width="1.20438"/>
<path d="M743.561 81.2771H779.46V93.2435H743.561V81.2771Z" stroke="#0169A4" stroke-width="1.20438"/>
<path d="M743.561 105.21H779.46V117.176H743.561V105.21Z" stroke="#0169A4" stroke-width="1.20438"/>
<path d="M743.561 129.143H779.46V141.109H743.561V129.143Z" stroke="#0169A4" stroke-width="1.20438"/>
<path d="M1 336.811H269.75V571.811H1V336.811Z" fill="#0A4B88"/>
<path d="M658.5 336.811H826V571.811H658.5V336.811Z" fill="#0A4B88"/>
<path d="M269.75 355.561H288.5V571.811H269.75V355.561Z" fill="#0A4B88"/>
<path d="M288.5 374.311H326V571.811H288.5V374.311Z" fill="#0A4B88"/>
<path d="M596 374.311H658.5V571.811H596V374.311Z" fill="#0A4B88"/>
<path d="M326 393.061H344.75V571.811H326V393.061Z" fill="#0A4B88"/>
<path d="M564.75 386.811H596V565.561H564.75V386.811Z" fill="#0A4B88"/>
<path d="M344.75 411.811H564.75V571.811H344.75V411.811Z" fill="#0A4B88"/>
<path d="M269.75 571.811V336.811H1V571.811H269.75ZM269.75 571.811H288.5M269.75 571.811V355.561H288.5V571.811M658.5 571.811H826V336.811H658.5V571.811ZM658.5 571.811V374.311H596V571.811H658.5ZM288.5 571.811H326M288.5 571.811V374.311H326V571.811M326 571.811H344.75M326 571.811V393.061H344.75V571.811M344.75 571.811H564.75V411.811H344.75V571.811ZM564.75 386.811H596V565.561H564.75V386.811Z" stroke="#0A4B88" stroke-width="1.20438"/>
<path d="M402.25 230.561H423.5V253.477H402.25V230.561Z" fill="#0A4B88"/>
<path d="M402.25 390.977H423.5V436.811H402.25V390.977Z" fill="#0A4B88"/>
<path d="M402.25 276.394H423.5V299.311H402.25V276.394Z" fill="#0A4B88"/>
<path d="M359.75 322.227H466V345.144H359.75V322.227Z" fill="#0A4B88"/>
<path d="M359.75 368.061H466V390.977H359.75V368.061Z" fill="#0A4B88"/>
<path d="M381 253.477H444.75V276.394H381V253.477Z" fill="#0A4B88"/>
<path d="M381 299.311H444.75V322.227H381V299.311Z" fill="#0A4B88"/>
<path d="M381 345.144H444.75V368.061H381V345.144Z" fill="#0A4B88"/>
<path d="M402.25 230.561H423.5V253.477H402.25V230.561Z" stroke="#0A4B88" stroke-width="1.20438"/>
<path d="M402.25 390.977H423.5V436.811H402.25V390.977Z" stroke="#0A4B88" stroke-width="1.20438"/>
<path d="M402.25 276.394H423.5V299.311H402.25V276.394Z" stroke="#0A4B88" stroke-width="1.20438"/>
<path d="M359.75 322.227H466V345.144H359.75V322.227Z" stroke="#0A4B88" stroke-width="1.20438"/>
<path d="M359.75 368.061H466V390.977H359.75V368.061Z" stroke="#0A4B88" stroke-width="1.20438"/>
<path d="M381 253.477H444.75V276.394H381V253.477Z" stroke="#0A4B88" stroke-width="1.20438"/>
<path d="M381 299.311H444.75V322.227H381V299.311Z" stroke="#0A4B88" stroke-width="1.20438"/>
<path d="M381 345.144H444.75V368.061H381V345.144Z" stroke="#0A4B88" stroke-width="1.20438"/>
<path d="M543.5 205.561H564.75V228.477H543.5V205.561Z" fill="#0A4B88"/>
<path d="M543.5 365.977H564.75V411.811H543.5V365.977Z" fill="#0A4B88"/>
<path d="M543.5 251.394H564.75V274.311H543.5V251.394Z" fill="#0A4B88"/>
<path d="M501 297.227H607.25V320.144H501V297.227Z" fill="#0A4B88"/>
<path d="M501 343.061H607.25V365.977H501V343.061Z" fill="#0A4B88"/>
<path d="M522.25 228.477H586V251.394H522.25V228.477Z" fill="#0A4B88"/>
<path d="M522.25 274.311H586V297.227H522.25V274.311Z" fill="#0A4B88"/>
<path d="M522.25 320.144H586V343.061H522.25V320.144Z" fill="#0A4B88"/>
<path d="M543.5 205.561H564.75V228.477H543.5V205.561Z" stroke="#0A4B88" stroke-width="1.20438"/>
<path d="M543.5 365.977H564.75V411.811H543.5V365.977Z" stroke="#0A4B88" stroke-width="1.20438"/>
<path d="M543.5 251.394H564.75V274.311H543.5V251.394Z" stroke="#0A4B88" stroke-width="1.20438"/>
<path d="M501 297.227H607.25V320.144H501V297.227Z" stroke="#0A4B88" stroke-width="1.20438"/>
<path d="M501 343.061H607.25V365.977H501V343.061Z" stroke="#0A4B88" stroke-width="1.20438"/>
<path d="M522.25 228.477H586V251.394H522.25V228.477Z" stroke="#0A4B88" stroke-width="1.20438"/>
<path d="M522.25 274.311H586V297.227H522.25V274.311Z" stroke="#0A4B88" stroke-width="1.20438"/>
<path d="M522.25 320.144H586V343.061H522.25V320.144Z" stroke="#0A4B88" stroke-width="1.20438"/>
<path d="M288.5 168.061H309.75V190.977H288.5V168.061Z" fill="#0A4B88"/>
<path d="M288.5 328.477H309.75V374.311H288.5V328.477Z" fill="#0A4B88"/>
<path d="M288.5 213.894H309.75V236.811H288.5V213.894Z" fill="#0A4B88"/>
<path d="M246 259.727H352.25V282.644H246V259.727Z" fill="#0A4B88"/>
<path d="M246 305.561H352.25V328.477H246V305.561Z" fill="#0A4B88"/>
<path d="M267.25 190.977H331V213.894H267.25V190.977Z" fill="#0A4B88"/>
<path d="M267.25 236.811H331V259.727H267.25V236.811Z" fill="#0A4B88"/>
<path d="M267.25 282.644H331V305.561H267.25V282.644Z" fill="#0A4B88"/>
<path d="M288.5 168.061H309.75V190.977H288.5V168.061Z" stroke="#0A4B88" stroke-width="1.20438"/>
<path d="M288.5 328.477H309.75V374.311H288.5V328.477Z" stroke="#0A4B88" stroke-width="1.20438"/>
<path d="M288.5 213.894H309.75V236.811H288.5V213.894Z" stroke="#0A4B88" stroke-width="1.20438"/>
<path d="M246 259.727H352.25V282.644H246V259.727Z" stroke="#0A4B88" stroke-width="1.20438"/>
<path d="M246 305.561H352.25V328.477H246V305.561Z" stroke="#0A4B88" stroke-width="1.20438"/>
<path d="M267.25 190.977H331V213.894H267.25V190.977Z" stroke="#0A4B88" stroke-width="1.20438"/>
<path d="M267.25 236.811H331V259.727H267.25V236.811Z" stroke="#0A4B88" stroke-width="1.20438"/>
<path d="M267.25 282.644H331V305.561H267.25V282.644Z" stroke="#0A4B88" stroke-width="1.20438"/>
<path d="M142.25 130.561H163.5V153.477H142.25V130.561Z" fill="#0A4B88"/>
<path d="M142.25 290.977H163.5V336.811H142.25V290.977Z" fill="#0A4B88"/>
<path d="M142.25 176.394H163.5V199.311H142.25V176.394Z" fill="#0A4B88"/>
<path d="M99.75 222.227H206V245.144H99.75V222.227Z" fill="#0A4B88"/>
<path d="M99.75 268.061H206V290.977H99.75V268.061Z" fill="#0A4B88"/>
<path d="M121 153.477H184.75V176.394H121V153.477Z" fill="#0A4B88"/>
<path d="M121 199.311H184.75V222.227H121V199.311Z" fill="#0A4B88"/>
<path d="M121 245.144H184.75V268.061H121V245.144Z" fill="#0A4B88"/>
<path d="M142.25 130.561H163.5V153.477H142.25V130.561Z" stroke="#0A4B88" stroke-width="1.20438"/>
<path d="M142.25 290.977H163.5V336.811H142.25V290.977Z" stroke="#0A4B88" stroke-width="1.20438"/>
<path d="M142.25 176.394H163.5V199.311H142.25V176.394Z" stroke="#0A4B88" stroke-width="1.20438"/>
<path d="M99.75 222.227H206V245.144H99.75V222.227Z" stroke="#0A4B88" stroke-width="1.20438"/>
<path d="M99.75 268.061H206V290.977H99.75V268.061Z" stroke="#0A4B88" stroke-width="1.20438"/>
<path d="M121 153.477H184.75V176.394H121V153.477Z" stroke="#0A4B88" stroke-width="1.20438"/>
<path d="M121 199.311H184.75V222.227H121V199.311Z" stroke="#0A4B88" stroke-width="1.20438"/>
<path d="M121 245.144H184.75V268.061H121V245.144Z" stroke="#0A4B88" stroke-width="1.20438"/>
<path d="M1 130.561H22.25V153.477H1V130.561Z" fill="#0A4B88"/>
<path d="M1 290.977H22.25V336.811H1V290.977Z" fill="#0A4B88"/>
<path d="M1 176.394H22.25V199.311H1V176.394Z" fill="#0A4B88"/>
<path d="M1 222.227H64.75V245.144H1V222.227Z" fill="#0A4B88"/>
<path d="M1 268.061H64.75V290.977H1V268.061Z" fill="#0A4B88"/>
<path d="M1 153.477H43.5V176.394H1V153.477Z" fill="#0A4B88"/>
<path d="M1 199.311H43.5V222.227H1V199.311Z" fill="#0A4B88"/>
<path d="M1 245.144H43.5V268.061H1V245.144Z" fill="#0A4B88"/>
<path d="M1 153.477H22.25V130.561H1V153.477ZM1 153.477H43.5V176.394H1M1 153.477V176.394M1 290.977H22.25V336.811H1V290.977ZM1 290.977H64.75V268.061H1M1 290.977V268.061M1 176.394H22.25V199.311H1M1 176.394V199.311M1 199.311H43.5V222.227H1M1 199.311V222.227M1 222.227H64.75V245.144H1M1 222.227V245.144M1 245.144H43.5V268.061H1M1 245.144V268.061" stroke="#0A4B88" stroke-width="1.20438"/>
<path d="M783.5 222.227H826V245.144H783.5V222.227Z" fill="#0A4B88"/>
<path d="M783.5 268.061H826V290.977H783.5V268.061Z" fill="#0A4B88"/>
<path d="M804.75 153.477H826V176.394H804.75V153.477Z" fill="#0A4B88"/>
<path d="M804.75 199.311H826V222.227H804.75V199.311Z" fill="#0A4B88"/>
<path d="M804.75 245.144H826V268.061H804.75V245.144Z" fill="#0A4B88"/>
<path d="M826 222.227H783.5V245.144H826M826 222.227V245.144M826 222.227V199.311H804.75V222.227H826ZM826 245.144H804.75V268.061H826M826 245.144V268.061M826 268.061H783.5V290.977H826V268.061ZM826 153.477H804.75V176.394H826V153.477Z" stroke="#0A4B88" stroke-width="1.20438"/>
<path d="M551 461.811H576V486.811H551V461.811Z" fill="#003464"/>
<path d="M1 461.811H251V571.811H1V461.811Z" fill="#003464"/>
<path d="M576 411.811H826V571.811H576V411.811Z" fill="#003464"/>
<path d="M1 436.811H251V571.811H1V436.811Z" fill="#003464"/>
<path d="M601 386.811H826V411.811H601V386.811Z" fill="#003464"/>
<path d="M1 411.811H76V436.811H1V411.811Z" fill="#003464"/>
<path d="M251 486.811H576V571.811H251V486.811Z" fill="#003464"/>
<path d="M576 486.811V461.811H551V486.811H576ZM576 486.811H251V571.811M576 486.811V571.811M251 571.811V461.811H1V571.811M251 571.811H1M251 571.811V436.811H1M251 571.811H576M1 571.811V436.811M826 411.811H576V571.811M826 411.811V571.811H576M826 411.811V386.811H601V411.811H826ZM1 436.811H76V411.811H1V436.811Z" stroke="#003464" stroke-width="1.20438"/>
<path d="M176 236.811H201V261.811H176V236.811Z" fill="#003464"/>
<path d="M176 411.811H201V436.811H176V411.811Z" fill="#003464"/>
<path d="M176 286.811H201V311.811H176V286.811Z" fill="#003464"/>
<path d="M126 336.811H251V361.811H126V336.811Z" fill="#003464"/>
<path d="M126 386.811H251V411.811H126V386.811Z" fill="#003464"/>
<path d="M151 261.811H226V286.811H151V261.811Z" fill="#003464"/>
<path d="M151 311.811H226V336.811H151V311.811Z" fill="#003464"/>
<path d="M151 361.811H226V386.811H151V361.811Z" fill="#003464"/>
<path d="M176 236.811H201V261.811H176V236.811Z" stroke="#003464" stroke-width="1.20438"/>
<path d="M176 411.811H201V436.811H176V411.811Z" stroke="#003464" stroke-width="1.20438"/>
<path d="M176 286.811H201V311.811H176V286.811Z" stroke="#003464" stroke-width="1.20438"/>
<path d="M126 336.811H251V361.811H126V336.811Z" stroke="#003464" stroke-width="1.20438"/>
<path d="M126 386.811H251V411.811H126V386.811Z" stroke="#003464" stroke-width="1.20438"/>
<path d="M151 261.811H226V286.811H151V261.811Z" stroke="#003464" stroke-width="1.20438"/>
<path d="M151 311.811H226V336.811H151V311.811Z" stroke="#003464" stroke-width="1.20438"/>
<path d="M151 361.811H226V386.811H151V361.811Z" stroke="#003464" stroke-width="1.20438"/>
<path d="M476 261.811H501V286.811H476V261.811Z" fill="#003464"/>
<path d="M476 436.811H501V486.811H476V436.811Z" fill="#003464"/>
<path d="M476 311.811H501V336.811H476V311.811Z" fill="#003464"/>
<path d="M426 361.811H551V386.811H426V361.811Z" fill="#003464"/>
<path d="M426 411.811H551V436.811H426V411.811Z" fill="#003464"/>
<path d="M451 286.811H526V311.811H451V286.811Z" fill="#003464"/>
<path d="M451 336.811H526V361.811H451V336.811Z" fill="#003464"/>
<path d="M451 386.811H526V411.811H451V386.811Z" fill="#003464"/>
<path d="M476 261.811H501V286.811H476V261.811Z" stroke="#003464" stroke-width="1.20438"/>
<path d="M476 436.811H501V486.811H476V436.811Z" stroke="#003464" stroke-width="1.20438"/>
<path d="M476 311.811H501V336.811H476V311.811Z" stroke="#003464" stroke-width="1.20438"/>
<path d="M426 361.811H551V386.811H426V361.811Z" stroke="#003464" stroke-width="1.20438"/>
<path d="M426 411.811H551V436.811H426V411.811Z" stroke="#003464" stroke-width="1.20438"/>
<path d="M451 286.811H526V311.811H451V286.811Z" stroke="#003464" stroke-width="1.20438"/>
<path d="M451 336.811H526V361.811H451V336.811Z" stroke="#003464" stroke-width="1.20438"/>
<path d="M451 386.811H526V411.811H451V386.811Z" stroke="#003464" stroke-width="1.20438"/>
<path d="M726 161.811H751V186.811H726V161.811Z" fill="#003464"/>
<path d="M726 336.811H751V386.811H726V336.811Z" fill="#003464"/>
<path d="M726 211.811H751V236.811H726V211.811Z" fill="#003464"/>
<path d="M676 261.811H801V286.811H676V261.811Z" fill="#003464"/>
<path d="M676 311.811H801V336.811H676V311.811Z" fill="#003464"/>
<path d="M701 186.811H776V211.811H701V186.811Z" fill="#003464"/>
<path d="M701 236.811H776V261.811H701V236.811Z" fill="#003464"/>
<path d="M701 286.811H776V311.811H701V286.811Z" fill="#003464"/>
<path d="M726 161.811H751V186.811H726V161.811Z" stroke="#003464" stroke-width="1.20438"/>
<path d="M726 336.811H751V386.811H726V336.811Z" stroke="#003464" stroke-width="1.20438"/>
<path d="M726 211.811H751V236.811H726V211.811Z" stroke="#003464" stroke-width="1.20438"/>
<path d="M676 261.811H801V286.811H676V261.811Z" stroke="#003464" stroke-width="1.20438"/>
<path d="M676 311.811H801V336.811H676V311.811Z" stroke="#003464" stroke-width="1.20438"/>
<path d="M701 186.811H776V211.811H701V186.811Z" stroke="#003464" stroke-width="1.20438"/>
<path d="M701 236.811H776V261.811H701V236.811Z" stroke="#003464" stroke-width="1.20438"/>
<path d="M701 286.811H776V311.811H701V286.811Z" stroke="#003464" stroke-width="1.20438"/>
</svg>
