<svg width="19" height="18" viewBox="0 0 19 18" fill="none" xmlns="http://www.w3.org/2000/svg">
<path fill-rule="evenodd" clip-rule="evenodd" d="M9.11446 5.44477e-05C6.95034 0.000345691 4.85691 0.770571 3.20865 2.17295C1.5604 3.57533 0.464834 5.51838 0.117947 7.65452C-0.228941 9.79066 0.195474 11.9805 1.31527 13.8324C2.43507 15.6843 4.1772 17.0774 6.23002 17.7625C6.6858 17.8471 6.88114 17.5671 6.88114 17.3262V15.7766C4.3483 16.3235 3.81439 14.5525 3.81439 14.5525C3.63628 13.9944 3.26141 13.52 2.75958 13.2177C1.93266 12.6577 2.82469 12.6642 2.82469 12.6642C3.11353 12.705 3.38922 12.8113 3.63071 12.9749C3.87221 13.1386 4.07311 13.3552 4.21808 13.6084C4.47028 14.0607 4.89181 14.3944 5.38998 14.536C5.88814 14.6777 6.42216 14.6157 6.87463 14.3636C6.91139 13.9017 7.11506 13.4689 7.44761 13.1461C5.42915 12.9117 3.30001 12.1303 3.30001 8.64035C3.28524 7.73393 3.62115 6.85683 4.23761 6.19216C3.95858 5.40704 3.99121 4.54482 4.32877 3.78303C4.32877 3.78303 5.09057 3.53561 6.83556 4.71413C8.32757 4.30715 9.90135 4.30715 11.3934 4.71413C13.1318 3.53561 13.8936 3.78303 13.8936 3.78303C14.2312 4.54482 14.2638 5.40704 13.9848 6.19216C14.6013 6.85683 14.9372 7.73393 14.9224 8.64035C14.9224 12.1433 12.7933 12.9117 10.7618 13.1396C10.9794 13.3601 11.1472 13.6248 11.2539 13.9157C11.3606 14.2066 11.4037 14.517 11.3803 14.8259V17.3262C11.3803 17.6257 11.5431 17.8536 12.0315 17.7625C14.087 17.0765 15.8309 15.6808 16.9505 13.8255C18.0702 11.9702 18.4922 9.77671 18.1411 7.6384C17.7899 5.5001 16.6885 3.55682 15.0343 2.15705C13.3801 0.757275 11.2814 -0.00743173 9.11446 5.44477e-05Z" fill="#C4C4C4"/>
</svg>
