<svg width="39" height="35" viewBox="0 0 39 35" fill="none" xmlns="http://www.w3.org/2000/svg">
<path d="M13 24V24C16.1538 27.6795 21.8462 27.6795 25 24V24M19.5 1.3C17 2.5 14.5 4.5 15.5 7.5C16.8425 11.5275 23 10.5 23 7C23 3.95862 19.5 5.5 18.5 6.5M33.5 14H34C36.2091 14 38 15.7909 38 18V18C38 20.2091 36.2091 22 34 22H33.5M5.5 14H5C2.79086 14 1 15.7909 1 18V18C1 20.2091 2.79086 22 5 22H5.5M23 18V18C23 17.4477 23.4477 17 24 17V17C24.5523 17 25 17.4477 25 18V18C25 18.5523 24.5523 19 24 19V19C23.4477 19 23 18.5523 23 18ZM13 18V18C13 18.5523 13.4477 19 14 19V19C14.5523 19 15 18.5523 15 18V18C15 17.4477 14.5523 17 14 17V17C13.4477 17 13 17.4477 13 18ZM25.0441 2.29411V2.29411C30.4649 4.53721 34 9.82576 34 15.6924V19.0807C34 25.8146 29.4728 31.7073 22.9662 33.4423L22.7704 33.4946C20.303 34.1525 17.7034 34.1295 15.248 33.428V33.428C9.18207 31.6949 5 26.1506 5 19.8419V15.6924C5 9.82576 8.53506 4.53721 13.9559 2.29411V2.29411C17.506 0.825103 21.494 0.825103 25.0441 2.29411Z" stroke="white" stroke-width="2"/>
</svg>
