<svg width="25" height="22" viewBox="0 0 25 22" fill="none" xmlns="http://www.w3.org/2000/svg">
<path d="M11 14C12.213 10.7653 14.7653 8.21301 18 7C14.7653 5.78699 12.213 3.2347 11 0C9.78699 3.2347 7.2347 5.78699 4 7C7.2347 8.21301 9.78699 10.7653 11 14Z" fill="white"/>
<path d="M4 22C4.69315 20.1516 6.1516 18.6932 8 18C6.1516 17.3069 4.69315 15.8484 4 14C3.30685 15.8484 1.8484 17.3069 0 18C1.8484 18.6932 3.30685 20.1516 4 22Z" fill="white"/>
<path d="M21.9072 15.8145C22.411 14.471 23.471 13.411 24.8145 12.9072C23.471 12.4034 22.411 11.3434 21.9072 10C21.4034 11.3434 20.3434 12.4034 19 12.9072C20.3434 13.411 21.4034 14.471 21.9072 15.8145Z" fill="white"/>
</svg>
